# xmcd CD database file
#
# Track frame offsets:
#	150
#	13230
#	27175
#	42102
#	56000
#	69960
#	82642
#	95532
#	109810
#	121700
#	135222
#	145790
#	159127
#	170335
#	184905
#	197772
#	211190
#	224320
#	234747
#	247402
#	257767
#	270218
#
# Disc length: 3756 seconds
#
# Revision: 0
# Processed by: cddbd v1.5.2PL0 Copyright (c) Steve Scherf et al.
# Submitted via: CDex 1.51
#
DISCID=250eaa16
DTITLE=The Andrews Sisters - The Andrews Sisters
DYEAR=1900
DGENRE=Jazz
TTITLE0=Shoo Shoo Baby
TTITLE1=Bei Mir Bist Du Shoen
TTITLE2=Hold Tight Hold Tight
TTITLE3=Ferryboat Serenade
TTITLE4=Beat Me Daddy Eight To The Bar
TTITLE5=Nice Work If You Can Get It
TTITLE6=Strip Polka
TTITLE7=Rum and Coca Cola
TTITLE8=Rhumboogie
TTITLE9=Don't Sit Under The Apple Tree
TTITLE10=Bounce Me Brother With A Solid Four
TTITLE11=The Woodpecker Song
TTITLE12=Straighten Up And Fly Right
TTITLE13=Tu-Li Tulip Time
TTITLE14=Beer Barrel Polka (Roll Out The Barrel)
TTITLE15=(I'll Be With You) In Apple Blossom Time
TTITLE16=Aurrora
TTITLE17=Three Little Sisters
TTITLE18=Says My Heart
TTITLE19=Tico Tico
TTITLE20=Pennsylvania Polka
TTITLE21=Hit The Road
EXTD=
EXTT0=
EXTT1=
EXTT2=
EXTT3=
EXTT4=
EXTT5=
EXTT6=
EXTT7=
EXTT8=
EXTT9=
EXTT10=
EXTT11=
EXTT12=
EXTT13=
EXTT14=
EXTT15=
EXTT16=
EXTT17=
EXTT18=
EXTT19=
EXTT20=
EXTT21=
PLAYORDER=
